<?xml version="1.0" encoding="UTF-8" standalone="no"?>
<!DOCTYPE svg PUBLIC "-//W3C//DTD SVG 1.1//EN"
 "http://www.w3.org/Graphics/SVG/1.1/DTD/svg11.dtd">
<!-- Generated by graphviz version 2.43.0 (0)
 -->
<!-- Title: %3 Pages: 1 -->
<svg width="586pt" height="404pt"
 viewBox="0.00 0.00 586.14 404.00" xmlns="http://www.w3.org/2000/svg" xmlns:xlink="http://www.w3.org/1999/xlink">
<g id="graph0" class="graph" transform="scale(1 1) rotate(0) translate(4 400)">
<title>%3</title>
<polygon fill="white" stroke="transparent" points="-4,4 -4,-400 582.14,-400 582.14,4 -4,4"/>
<!-- StationManager -->
<g id="node1" class="node">
<title>StationManager</title>
<ellipse fill="none" stroke="black" cx="128.74" cy="-378" rx="85.59" ry="18"/>
<text text-anchor="middle" x="128.74" y="-374.3" font-family="Times,serif" font-size="14.00">StationManager</text>
</g>
<!-- Station -->
<g id="node2" class="node">
<title>Station</title>
<ellipse fill="none" stroke="black" cx="128.74" cy="-306" rx="44.39" ry="18"/>
<text text-anchor="middle" x="128.74" y="-302.3" font-family="Times,serif" font-size="14.00">Station</text>
</g>
<!-- StationManager&#45;&gt;Station -->
<g id="edge1" class="edge">
<title>StationManager&#45;&gt;Station</title>
<path fill="none" stroke="black" d="M128.74,-359.7C128.74,-351.98 128.74,-342.71 128.74,-334.11"/>
<polygon fill="black" stroke="black" points="132.24,-334.1 128.74,-324.1 125.24,-334.1 132.24,-334.1"/>
</g>
<!-- Controller -->
<g id="node3" class="node">
<title>Controller</title>
<ellipse fill="none" stroke="black" cx="69.74" cy="-162" rx="57.69" ry="18"/>
<text text-anchor="middle" x="69.74" y="-158.3" font-family="Times,serif" font-size="14.00">Controller</text>
</g>
<!-- Station&#45;&gt;Controller -->
<g id="edge2" class="edge">
<title>Station&#45;&gt;Controller</title>
<path fill="none" stroke="black" d="M116.81,-288.47C109.92,-278.33 101.5,-264.86 95.74,-252 86.79,-231.98 80,-208.06 75.61,-190.06"/>
<polygon fill="black" stroke="black" points="78.99,-189.16 73.3,-180.22 72.18,-190.75 78.99,-189.16"/>
</g>
<!-- DeviceManager -->
<g id="node7" class="node">
<title>DeviceManager</title>
<ellipse fill="none" stroke="black" cx="187.74" cy="-234" rx="83.39" ry="18"/>
<text text-anchor="middle" x="187.74" y="-230.3" font-family="Times,serif" font-size="14.00">DeviceManager</text>
</g>
<!-- Station&#45;&gt;DeviceManager -->
<g id="edge7" class="edge">
<title>Station&#45;&gt;DeviceManager</title>
<path fill="none" stroke="black" d="M142.43,-288.76C149.66,-280.18 158.7,-269.46 166.79,-259.86"/>
<polygon fill="black" stroke="black" points="169.54,-262.03 173.31,-252.12 164.19,-257.51 169.54,-262.03"/>
</g>
<!-- Data -->
<g id="node4" class="node">
<title>Data</title>
<ellipse fill="none" stroke="black" cx="104.74" cy="-90" rx="32.49" ry="18"/>
<text text-anchor="middle" x="104.74" y="-86.3" font-family="Times,serif" font-size="14.00">Data</text>
</g>
<!-- Controller&#45;&gt;Data -->
<g id="edge3" class="edge">
<title>Controller&#45;&gt;Data</title>
<path fill="none" stroke="black" d="M78.22,-144.05C82.3,-135.89 87.29,-125.91 91.83,-116.82"/>
<polygon fill="black" stroke="black" points="95.01,-118.3 96.35,-107.79 88.75,-115.17 95.01,-118.3"/>
</g>
<!-- Messanger -->
<g id="node5" class="node">
<title>Messanger</title>
<ellipse fill="none" stroke="black" cx="61.74" cy="-18" rx="61.99" ry="18"/>
<text text-anchor="middle" x="61.74" y="-14.3" font-family="Times,serif" font-size="14.00">Messanger</text>
</g>
<!-- Data&#45;&gt;Messanger -->
<g id="edge4" class="edge">
<title>Data&#45;&gt;Messanger</title>
<path fill="none" stroke="black" d="M94.77,-72.76C89.66,-64.44 83.31,-54.1 77.55,-44.73"/>
<polygon fill="black" stroke="black" points="80.48,-42.81 72.26,-36.12 74.52,-46.48 80.48,-42.81"/>
</g>
<!-- Server -->
<g id="node6" class="node">
<title>Server</title>
<ellipse fill="none" stroke="black" cx="183.74" cy="-18" rx="42.49" ry="18"/>
<text text-anchor="middle" x="183.74" y="-14.3" font-family="Times,serif" font-size="14.00">Server</text>
</g>
<!-- Data&#45;&gt;Server -->
<g id="edge5" class="edge">
<title>Data&#45;&gt;Server</title>
<path fill="none" stroke="black" d="M121.5,-74.15C132.27,-64.61 146.47,-52.03 158.59,-41.29"/>
<polygon fill="black" stroke="black" points="161.03,-43.8 166.19,-34.55 156.39,-38.56 161.03,-43.8"/>
</g>
<!-- DeviceManager&#45;&gt;Server -->
<g id="edge13" class="edge">
<title>DeviceManager&#45;&gt;Server</title>
<path fill="none" stroke="black" d="M210.25,-216.52C221.07,-207.16 232.92,-194.45 238.74,-180 244.73,-165.16 242.04,-159.66 238.74,-144 231.12,-107.75 212.31,-69.18 198.81,-44.63"/>
<polygon fill="black" stroke="black" points="201.71,-42.63 193.76,-35.63 195.61,-46.06 201.71,-42.63"/>
</g>
<!-- Device -->
<g id="node8" class="node">
<title>Device</title>
<ellipse fill="none" stroke="black" cx="187.74" cy="-162" rx="42.49" ry="18"/>
<text text-anchor="middle" x="187.74" y="-158.3" font-family="Times,serif" font-size="14.00">Device</text>
</g>
<!-- DeviceManager&#45;&gt;Device -->
<g id="edge6" class="edge">
<title>DeviceManager&#45;&gt;Device</title>
<path fill="none" stroke="black" d="M187.74,-215.7C187.74,-207.98 187.74,-198.71 187.74,-190.11"/>
<polygon fill="black" stroke="black" points="191.24,-190.1 187.74,-180.1 184.24,-190.1 191.24,-190.1"/>
</g>
<!-- Device&#45;&gt;Data -->
<g id="edge14" class="edge">
<title>Device&#45;&gt;Data</title>
<path fill="none" stroke="black" d="M169.32,-145.46C157.73,-135.68 142.61,-122.93 129.91,-112.22"/>
<polygon fill="black" stroke="black" points="131.88,-109.31 121.98,-105.54 127.37,-114.66 131.88,-109.31"/>
</g>
<!-- Drivers -->
<g id="node9" class="node">
<title>Drivers</title>
<ellipse fill="none" stroke="black" cx="373.74" cy="-90" rx="45.49" ry="18"/>
<text text-anchor="middle" x="373.74" y="-86.3" font-family="Times,serif" font-size="14.00">Drivers</text>
</g>
<!-- Device&#45;&gt;Drivers -->
<g id="edge8" class="edge">
<title>Device&#45;&gt;Drivers</title>
<path fill="none" stroke="black" d="M218.46,-149.44C249.54,-137.74 297.81,-119.58 332.28,-106.61"/>
<polygon fill="black" stroke="black" points="333.92,-109.73 342.05,-102.93 331.46,-103.17 333.92,-109.73"/>
</g>
<!-- GPIO -->
<g id="node10" class="node">
<title>GPIO</title>
<ellipse fill="none" stroke="black" cx="278.74" cy="-18" rx="35.19" ry="18"/>
<text text-anchor="middle" x="278.74" y="-14.3" font-family="Times,serif" font-size="14.00">GPIO</text>
</g>
<!-- Drivers&#45;&gt;GPIO -->
<g id="edge9" class="edge">
<title>Drivers&#45;&gt;GPIO</title>
<path fill="none" stroke="black" d="M353.13,-73.81C339.45,-63.73 321.32,-50.37 306.39,-39.37"/>
<polygon fill="black" stroke="black" points="308.15,-36.32 298.02,-33.21 304,-41.95 308.15,-36.32"/>
</g>
<!-- analog -->
<g id="node11" class="node">
<title>analog</title>
<ellipse fill="none" stroke="black" cx="373.74" cy="-18" rx="41.69" ry="18"/>
<text text-anchor="middle" x="373.74" y="-14.3" font-family="Times,serif" font-size="14.00">analog</text>
</g>
<!-- Drivers&#45;&gt;analog -->
<g id="edge10" class="edge">
<title>Drivers&#45;&gt;analog</title>
<path fill="none" stroke="black" d="M373.74,-71.7C373.74,-63.98 373.74,-54.71 373.74,-46.11"/>
<polygon fill="black" stroke="black" points="377.24,-46.1 373.74,-36.1 370.24,-46.1 377.24,-46.1"/>
</g>
<!-- i2c -->
<g id="node12" class="node">
<title>i2c</title>
<ellipse fill="none" stroke="black" cx="460.74" cy="-18" rx="27" ry="18"/>
<text text-anchor="middle" x="460.74" y="-14.3" font-family="Times,serif" font-size="14.00">i2c</text>
</g>
<!-- Drivers&#45;&gt;i2c -->
<g id="edge11" class="edge">
<title>Drivers&#45;&gt;i2c</title>
<path fill="none" stroke="black" d="M393.05,-73.46C405.74,-63.26 422.45,-49.81 436.09,-38.84"/>
<polygon fill="black" stroke="black" points="438.53,-41.37 444.13,-32.37 434.14,-35.91 438.53,-41.37"/>
</g>
<!-- serial -->
<g id="node13" class="node">
<title>serial</title>
<ellipse fill="none" stroke="black" cx="541.74" cy="-18" rx="36.29" ry="18"/>
<text text-anchor="middle" x="541.74" y="-14.3" font-family="Times,serif" font-size="14.00">serial</text>
</g>
<!-- Drivers&#45;&gt;serial -->
<g id="edge12" class="edge">
<title>Drivers&#45;&gt;serial</title>
<path fill="none" stroke="black" d="M404.17,-76.32C432.67,-64.45 475.28,-46.69 505.52,-34.09"/>
<polygon fill="black" stroke="black" points="506.99,-37.27 514.87,-30.2 504.3,-30.81 506.99,-37.27"/>
</g>
</g>
</svg>
